Coordinates
version=1
nRows=34
nColumns=38
inDegrees=no

Units are S.I. units (second, meters, Newtons, ...)
If the header above contains a line with 'inDegrees', this indicates whether rotational values are in degrees (yes) or radians (no).

endheader
time	pelvis_tilt	pelvis_list	pelvis_rotation	pelvis_tx	pelvis_ty	pelvis_tz	hip_flexion_r	hip_adduction_r	hip_rotation_r	knee_angle_r	ankle_angle_r	subtalar_angle_r	mtp_angle_r	hip_flexion_l	hip_adduction_l	hip_rotation_l	knee_angle_l	ankle_angle_l	subtalar_angle_l	mtp_angle_l	lumbar_extension	lumbar_bending	lumbar_rotation	arm_flex_r	arm_add_r	arm_rot_r	elbow_flex_r	pro_sup_r	wrist_flex_r	wrist_dev_r	arm_flex_l	arm_add_l	arm_rot_l	elbow_flex_l	pro_sup_l	wrist_flex_l	wrist_dev_l
0	1.758	1.46735	-0.0491161	0.610147	-0.668911	0.938006	0.149189	0.110543	-0.219382	0.359636	-0.235431	0	0	0.156307	-0.205591	0.0126775	1.37285	-0.249813	0	0	-0.0638161	0.144547	-0.141417	-0.0499147	-0.313019	0.271876	0.833669	1.52817	0	0	-0.19725	-0.236799	0.196462	0.781929	1.5708	0	0
0.01	1.72466	1.47347	-0.0195882	0.610902	-0.66107	0.938625	0.14105	0.106979	-0.217498	0.354842	-0.23135	0	0	0.187545	-0.196805	0.0168581	1.39316	-0.232878	0	0	-0.0632362	0.135931	-0.136436	-0.0353797	-0.31343	0.281099	0.830583	1.52404	0	0	-0.209322	-0.243597	0.17927	0.79671	1.5708	0	0
0.02	1.73762	1.47995	-0.0369335	0.611762	-0.652854	0.939628	0.127005	0.102826	-0.218134	0.349162	-0.228774	0	0	0.21116	-0.188957	0.0159486	1.4046	-0.222776	0	0	-0.0624316	0.128853	-0.129985	-0.0230457	-0.315488	0.29107	0.828629	1.51709	0	0	-0.212145	-0.241926	0.181965	0.789182	1.5708	0	0
0.03	1.78558	1.48632	-0.0897752	0.612638	-0.644612	0.940881	0.108372	0.0989651	-0.216818	0.339195	-0.227457	0	0	0.229746	-0.181457	0.0125272	1.40923	-0.208735	0	0	-0.0698863	0.119748	-0.123181	-0.0161761	-0.299363	0.256465	0.824952	1.5708	0	0	-0.221245	-0.242994	0.166283	0.797824	1.5708	0	0
0.04	1.84117	1.49268	-0.150579	0.613469	-0.636362	0.942078	0.0903232	0.0944389	-0.215867	0.330852	-0.226438	0	0	0.247401	-0.174092	0.00657134	1.40819	-0.197896	0	0	-0.0753158	0.110686	-0.117465	-0.00252514	-0.29748	0.260173	0.822224	1.5708	0	0	-0.22903	-0.244841	0.155362	0.803408	1.5708	0	0
0.05	1.9223	1.49881	-0.235995	0.614211	-0.628124	0.943275	0.0703094	0.0893586	-0.216196	0.320435	-0.225806	0	0	0.26299	-0.166274	-0.000273762	1.4019	-0.18607	0	0	-0.0818817	0.101065	-0.112782	0.0112393	-0.294669	0.262603	0.819349	1.5708	0	0	-0.236273	-0.247004	0.144965	0.809542	1.5708	0	0
0.06	1.97134	1.50534	-0.289859	0.614925	-0.619884	0.944119	0.0557312	0.0835453	-0.21739	0.315335	-0.220852	0	0	0.281092	-0.157894	-0.0069454	1.3917	-0.177132	0	0	-0.0837486	0.0920636	-0.10146	0.0177042	-0.293302	0.256822	0.821334	1.5708	0	0	-0.236563	-0.252512	0.150591	0.81018	1.5708	0	0
0.07	2.14863	1.50709	-0.471599	0.615642	-0.611804	0.945526	0.0268596	0.0810328	-0.211945	0.296029	-0.225032	0	0	0.288047	-0.151457	-0.0150408	1.3755	-0.165669	0	0	-0.0979303	0.0833416	-0.102597	0.037568	-0.288339	0.263398	0.816651	1.5708	0	0	-0.248522	-0.251698	0.126942	0.822335	1.5708	0	0
0.08	2.21597	1.51198	-0.543263	0.616166	-0.603537	0.946061	0.0121257	0.0762384	-0.210239	0.290164	-0.218136	0	0	0.304007	-0.143231	-0.0214006	1.35627	-0.158029	0	0	-0.0995233	0.0756511	-0.0913364	0.0418135	-0.286599	0.253369	0.821335	1.5708	0	0	-0.247529	-0.257335	0.134842	0.822563	1.5708	0	0
0.09	2.36022	1.51252	-0.690771	0.616534	-0.595392	0.946828	-0.0114632	0.0731719	-0.206082	0.275695	-0.217632	0	0	0.312665	-0.136204	-0.0286524	1.33165	-0.150922	0	0	-0.10857	0.0687171	-0.0882585	0.0536208	-0.283839	0.252283	0.823443	1.5708	0	0	-0.25301	-0.25926	0.126669	0.829203	1.5708	0	0
0.1	2.54298	1.5079	-0.876003	0.616781	-0.587453	0.947775	-0.0410463	0.0710964	-0.201283	0.257293	-0.221281	0	0	0.314662	-0.129715	-0.0358267	1.30145	-0.145191	0	0	-0.124048	0.0623158	-0.0925134	0.0729374	-0.280464	0.261362	0.822549	1.5708	0	0	-0.26351	-0.258116	0.105822	0.841047	1.5708	0	0
0.11	2.64692	1.50593	-0.982525	0.616952	-0.579507	0.948155	-0.0611807	0.0682658	-0.200102	0.247612	-0.219173	0	0	0.321319	-0.122555	-0.0409471	1.26707	-0.141817	0	0	-0.131801	0.0569551	-0.0908912	0.0855593	-0.278887	0.264484	0.824882	1.5708	0	0	-0.267407	-0.259977	0.100409	0.846422	1.5708	0	0
0.12	2.69913	1.50753	-1.03769	0.617075	-0.571485	0.948012	-0.0728174	0.0649775	-0.201044	0.245377	-0.213703	0	0	0.331807	-0.115143	-0.0443373	1.22747	-0.140242	0	0	-0.133461	0.0526921	-0.0793679	0.0856352	-0.277273	0.247247	0.835714	1.5708	0	0	-0.262643	-0.265073	0.111507	0.845353	1.5708	0	0
0.13	2.786	1.50183	-1.12687	0.617115	-0.563656	0.948223	-0.0950723	0.0639915	-0.198638	0.235227	-0.213244	0	0	0.332124	-0.109162	-0.0476497	1.18083	-0.142045	0	0	-0.140933	0.0494971	-0.0952854	0.130557	-0.301896	0.355756	0.826256	1.45767	0	0	-0.278515	-0.259951	0.08314	0.853738	1.5708	0	0
0.14	2.82944	1.50033	-1.17232	0.617103	-0.555718	0.948032	-0.110229	0.0628919	-0.196099	0.229112	-0.212158	0	0	0.336382	-0.102323	-0.048803	1.12952	-0.144508	0	0	-0.151237	0.0466725	-0.0758597	0.105537	-0.273961	0.24463	0.849191	1.5708	0	0	-0.266784	-0.264092	0.0946428	0.854882	1.5708	0	0
0.15	2.87033	1.45129	-1.23651	0.61847	-0.544604	0.949124	-0.186346	0.078226	-0.185123	0.202537	-0.214586	0	0	0.303857	-0.264262	-0.36822	1.14754	-0.237524	0	0	-0.200532	0.060409	-0.060767	0.114675	-0.287514	0.265527	0.879102	1.5708	0	0	-0.287473	-0.260826	0.0750176	0.885023	1.5708	0	0
0.16	2.87788	1.49957	-1.22278	0.61671	-0.539957	0.946985	-0.134334	0.0610644	-0.197039	0.224495	-0.199383	0	0	0.342448	-0.0872468	-0.0476115	1.01411	-0.150454	0	0	-0.158114	0.0429682	-0.0725965	0.121698	-0.270685	0.241324	0.861335	1.5708	0	0	-0.266984	-0.263958	0.0877637	0.857282	1.5708	0	0
0.17	2.88139	1.50208	-1.22648	0.616362	-0.531997	0.946077	-0.142659	0.0604539	-0.196952	0.22309	-0.195921	0	0	0.345012	-0.0790479	-0.0457447	0.9497	-0.15259	0	0	-0.157203	0.041648	-0.0722311	0.129749	-0.269644	0.243213	0.865597	1.5708	0	0	-0.266949	-0.263524	0.0852728	0.856225	1.5708	0	0
0.18	2.90786	1.44841	-1.27671	0.617288	-0.520502	0.946996	-0.225712	0.0747163	-0.186057	0.193327	-0.199776	0	0	0.311138	-0.251254	-0.429963	0.996695	-0.255041	0	0	-0.212009	0.0564824	-0.0529678	0.132279	-0.285003	0.256405	0.903537	1.5708	0	0	-0.284927	-0.260605	0.0710954	0.886946	1.5708	0	0
0.19	2.8988	1.50466	-1.24325	0.615582	-0.515887	0.944174	-0.163526	0.0597256	-0.197436	0.217471	-0.182082	0	0	0.339407	-0.0645373	-0.0483667	0.806584	-0.163777	0	0	-0.159796	0.0388668	-0.0706914	0.141376	-0.266394	0.239877	0.878488	1.5708	0	0	-0.264856	-0.262928	0.081156	0.855136	1.5708	0	0
0.2	2.87828	1.50786	-1.22115	0.614939	-0.507657	0.942833	-0.17124	0.0605099	-0.199031	0.215256	-0.179494	0	0	0.337963	-0.0589776	-0.0518752	0.73313	-0.166499	0	0	-0.157505	0.0391197	-0.0715918	0.146442	-0.265624	0.240859	0.884066	1.5708	0	0	-0.263791	-0.261857	0.0796591	0.852677	1.5708	0	0
0.21	2.84926	1.50969	-1.19005	0.614219	-0.499451	0.941434	-0.179854	0.062106	-0.202529	0.213695	-0.173627	0	0	0.334819	-0.0549425	-0.0573346	0.658361	-0.173787	0	0	-0.15673	0.0403568	-0.0727427	0.15103	-0.264954	0.241338	0.890296	1.5708	0	0	-0.262064	-0.26068	0.0787513	0.850667	1.5708	0	0
0.22	2.81277	1.5111	-1.15134	0.613447	-0.491108	0.939913	-0.189253	0.0643521	-0.205523	0.211041	-0.168069	0	0	0.330475	-0.0517577	-0.0635909	0.582106	-0.18549	0	0	-0.156037	0.0420359	-0.0741066	0.154882	-0.264208	0.24167	0.896548	1.5708	0	0	-0.260399	-0.259565	0.0784732	0.848811	1.5708	0	0
0.23	2.75816	1.51292	-1.09356	0.61242	-0.482539	0.938184	-0.198213	0.067342	-0.208903	0.208182	-0.163266	0	0	0.326463	-0.0487436	-0.0683054	0.506454	-0.200011	0	0	-0.153844	0.0448697	-0.0765736	0.15747	-0.263774	0.241794	0.902963	1.5708	0	0	-0.259176	-0.25782	0.0782696	0.846316	1.5708	0	0
0.24	2.6912	1.51402	-1.0229	0.611177	-0.473822	0.936372	-0.207574	0.0710471	-0.213084	0.206071	-0.158468	0	0	0.321823	-0.0459893	-0.0713483	0.43337	-0.216602	0	0	-0.151619	0.0487562	-0.0794696	0.159185	-0.263829	0.241899	0.909452	1.5708	0	0	-0.257757	-0.255745	0.0787893	0.843579	1.5708	0	0
0.25	2.63619	1.51342	-0.96426	0.609762	-0.465026	0.934606	-0.218716	0.074782	-0.217856	0.204334	-0.152888	0	0	0.314643	-0.0428641	-0.0728532	0.363218	-0.235936	0	0	-0.151691	0.0537203	-0.0865734	0.163898	-0.264305	0.249617	0.912472	1.5708	0	0	-0.258744	-0.252423	0.0754118	0.842097	1.5708	0	0
0.26	2.56664	1.51341	-0.890401	0.608249	-0.456151	0.932745	-0.227684	0.0786615	-0.222099	0.204534	-0.148291	0	0	0.310334	-0.039796	-0.0737168	0.303023	-0.244757	0	0	-0.149073	0.057381	-0.0875602	0.162917	-0.264815	0.246159	0.920468	1.5708	0	0	-0.255757	-0.250655	0.0786855	0.839543	1.5708	0	0
0.27	2.52053	1.51234	-0.84086	0.606665	-0.447203	0.930945	-0.237161	0.0814699	-0.226693	0.20697	-0.143566	0	0	0.303687	-0.0359239	-0.0719257	0.247429	-0.252505	0	0	-0.148841	0.0613013	-0.0893912	0.161834	-0.265765	0.244848	0.927554	1.5708	0	0	-0.253262	-0.24866	0.0812605	0.83746	1.5708	0	0
0.28	2.48942	1.51094	-0.807284	0.605149	-0.438158	0.92922	-0.245812	0.0832451	-0.230961	0.212973	-0.138283	0	0	0.295812	-0.0320838	-0.0678968	0.197385	-0.258564	0	0	-0.149356	0.0645602	-0.0904849	0.160886	-0.266405	0.244295	0.932929	1.5708	0	0	-0.25081	-0.246633	0.0837306	0.835619	1.5708	0	0
0.29	2.46915	1.50954	-0.785592	0.603782	-0.429049	0.927609	-0.252769	0.0837906	-0.235643	0.223556	-0.132207	0	0	0.287583	-0.0289341	-0.0618078	0.155131	-0.264345	0	0	-0.150422	0.0670479	-0.0903947	0.160106	-0.266249	0.243767	0.935824	1.5708	0	0	-0.24782	-0.244498	0.0856925	0.833285	1.5708	0	0
0.3	2.45781	1.50862	-0.773975	0.602546	-0.419895	0.926136	-0.257191	0.0824379	-0.243382	0.239938	-0.125671	0	0	0.280886	-0.0264134	-0.0559266	0.125818	-0.27008	0	0	-0.151711	0.0682312	-0.0893916	0.159384	-0.26541	0.243557	0.936751	1.5708	0	0	-0.244393	-0.242686	0.0878743	0.830577	1.5708	0	0
0.31	2.45062	1.50823	-0.767842	0.601421	-0.410668	0.924797	-0.259938	0.0796806	-0.25039	0.259437	-0.119921	0	0	0.277659	-0.0246111	-0.0525235	0.114695	-0.273677	0	0	-0.152884	0.0683994	-0.0873501	0.158525	-0.263875	0.243025	0.936076	1.5708	0	0	-0.240852	-0.240508	0.0891339	0.827325	1.5708	0	0
0.32	2.45512	1.50861	-0.774526	0.600353	-0.401362	0.923595	-0.259813	0.0743422	-0.258982	0.28604	-0.112419	0	0	0.277632	-0.0224578	-0.0502274	0.121197	-0.275918	0	0	-0.154082	0.0670123	-0.0842382	0.156936	-0.261791	0.241868	0.934263	1.5708	0	0	-0.236841	-0.238439	0.0907711	0.823567	1.5708	0	0
0.33	2.46675	1.50974	-0.789088	0.599316	-0.391871	0.922533	-0.258982	0.0677566	-0.265884	0.313994	-0.106182	0	0	0.279913	-0.0198034	-0.0482541	0.142515	-0.275895	0	0	-0.154776	0.0644534	-0.0806334	0.154327	-0.259438	0.240759	0.931475	1.5708	0	0	-0.23289	-0.236315	0.0922153	0.819113	1.5708	0	0
